<?xml version="1.0" encoding="UTF-8"?>
<svg id="Layer_2" data-name="Layer 2" xmlns="http://www.w3.org/2000/svg" viewBox="0 0 142.35 78.18">
  <defs>
    <style>
      .cls-1 {
        fill: #fff;
        stroke-width: 0px;
      }
    </style>
  </defs>
  <g id="Layer_1-2" data-name="Layer 1">
    <g>
      <path class="cls-1" d="M53.59,0v.84c10.64,4.09,19.09,12.46,23.3,23.04h1.04V0h-24.34ZM75.93,17.36c-3.72-6.35-9-11.64-15.34-15.36h15.34v15.36Z"/>
      <path class="cls-1" d="M.05,0v23.88h.98C5.14,13.54,13.3,5.32,23.6,1.14V0H.05ZM2.05,17.27V2h15.28c-6.31,3.7-11.58,8.96-15.28,15.27Z"/>
      <path class="cls-1" d="M.99,53.87h-.99v24.01h23.6v-1.14c-10.34-4.2-18.51-12.47-22.61-22.87ZM2,75.88v-15.36c3.71,6.35,9,11.64,15.34,15.36H2Z"/>
      <path class="cls-1" d="M76.94,53.87c-4.2,10.64-12.66,19.06-23.35,23.18v.83h24.34v-24.01h-.99ZM75.93,75.88h-15.33c6.34-3.73,11.62-9.02,15.33-15.36v15.36Z"/>
      <path class="cls-1" d="M39.01,23.55c-8.48,0-15.38,6.9-15.38,15.38s6.9,15.39,15.38,15.39,15.38-6.9,15.38-15.39-6.9-15.38-15.38-15.38ZM39.01,52.32c-7.39,0-13.38-5.99-13.38-13.39s5.99-13.38,13.38-13.38,13.38,5.99,13.38,13.38-5.99,13.39-13.38,13.39ZM39.01,23.55c-8.48,0-15.38,6.9-15.38,15.38s6.9,15.39,15.38,15.39,15.38-6.9,15.38-15.39-6.9-15.38-15.38-15.38ZM39.01,52.32c-7.39,0-13.38-5.99-13.38-13.39s5.99-13.38,13.38-13.38,13.38,5.99,13.38,13.38-5.99,13.39-13.38,13.39ZM39.01,23.55c-8.48,0-15.38,6.9-15.38,15.38s6.9,15.39,15.38,15.39,15.38-6.9,15.38-15.39-6.9-15.38-15.38-15.38ZM39.01,52.32c-7.39,0-13.38-5.99-13.38-13.39s5.99-13.38,13.38-13.38,13.38,5.99,13.38,13.38-5.99,13.39-13.38,13.39ZM39.01,23.55c-8.48,0-15.38,6.9-15.38,15.38s6.9,15.39,15.38,15.39,15.38-6.9,15.38-15.39-6.9-15.38-15.38-15.38ZM39.01,52.32c-7.39,0-13.38-5.99-13.38-13.39s5.99-13.38,13.38-13.38,13.38,5.99,13.38,13.38-5.99,13.39-13.38,13.39ZM39.01,23.55c-8.48,0-15.38,6.9-15.38,15.38s6.9,15.39,15.38,15.39,15.38-6.9,15.38-15.39-6.9-15.38-15.38-15.38ZM39.01,52.32c-7.39,0-13.38-5.99-13.38-13.39s5.99-13.38,13.38-13.38,13.38,5.99,13.38,13.38-5.99,13.39-13.38,13.39ZM39.01,23.55c-8.48,0-15.38,6.9-15.38,15.38s6.9,15.39,15.38,15.39,15.38-6.9,15.38-15.39-6.9-15.38-15.38-15.38ZM39.01,52.32c-7.39,0-13.38-5.99-13.38-13.39s5.99-13.38,13.38-13.38,13.38,5.99,13.38,13.38-5.99,13.39-13.38,13.39ZM39.01,23.55c-8.48,0-15.38,6.9-15.38,15.38s6.9,15.39,15.38,15.39,15.38-6.9,15.38-15.39-6.9-15.38-15.38-15.38ZM39.01,52.32c-7.39,0-13.38-5.99-13.38-13.39s5.99-13.38,13.38-13.38,13.38,5.99,13.38,13.38-5.99,13.39-13.38,13.39ZM39.01,23.55c-8.48,0-15.38,6.9-15.38,15.38s6.9,15.39,15.38,15.39,15.38-6.9,15.38-15.39-6.9-15.38-15.38-15.38ZM39.01,52.32c-7.39,0-13.38-5.99-13.38-13.39s5.99-13.38,13.38-13.38,13.38,5.99,13.38,13.38-5.99,13.39-13.38,13.39ZM39.01,23.55c-8.48,0-15.38,6.9-15.38,15.38s6.9,15.39,15.38,15.39,15.38-6.9,15.38-15.39-6.9-15.38-15.38-15.38ZM39.01,52.32c-7.39,0-13.38-5.99-13.38-13.39s5.99-13.38,13.38-13.38,13.38,5.99,13.38,13.38-5.99,13.39-13.38,13.39ZM39.01,23.55c-8.48,0-15.38,6.9-15.38,15.38s6.9,15.39,15.38,15.39,15.38-6.9,15.38-15.39-6.9-15.38-15.38-15.38ZM39.01,52.32c-7.39,0-13.38-5.99-13.38-13.39s5.99-13.38,13.38-13.38,13.38,5.99,13.38,13.38-5.99,13.39-13.38,13.39ZM65.18,40.64c-.87-4.32,1.92-8.53,6.24-9.4-2.92-12.21-12.46-21.75-24.67-24.67-.66,3.08-3.07,5.49-6.16,6.15-.55.12-1.11.17-1.66.17-3.69,0-7-2.57-7.79-6.32-12.15,2.96-21.63,12.47-24.54,24.63,3.73.73,6.43,4,6.44,7.81l.05.07c-.01,3.8-2.68,7.07-6.4,7.83,2.96,12.09,12.4,21.53,24.49,24.48.65-3.09,3.07-5.5,6.15-6.15.56-.12,1.12-.18,1.67-.18,3.68,0,7,2.58,7.79,6.33,12.16-2.9,21.67-12.37,24.63-24.51-3.14-.63-5.6-3.09-6.24-6.24ZM48.09,68.97c-1.58-3.52-5.13-5.91-9.1-5.91-.69,0-1.39.08-2.07.22-3.16.67-5.75,2.81-7.04,5.68-9.95-3.05-17.7-10.79-20.76-20.74,3.55-1.57,5.96-5.13,5.97-9.13,0-.16-.02-.31-.06-.46-.15-3.87-2.54-7.26-6-8.76,3.03-10.03,10.79-17.81,20.81-20.88,1.58,3.52,5.13,5.9,9.09,5.9.7,0,1.4-.07,2.08-.22,3.16-.66,5.75-2.81,7.04-5.68,10.09,3.03,17.9,10.84,20.94,20.93-1.74.76-3.23,2-4.3,3.62-1.48,2.22-2,4.89-1.47,7.5.65,3.23,2.83,5.87,5.77,7.16-3.08,10.01-10.87,17.76-20.9,20.77ZM39.01,23.55c-8.48,0-15.38,6.9-15.38,15.38s6.9,15.39,15.38,15.39,15.38-6.9,15.38-15.39-6.9-15.38-15.38-15.38ZM39.01,52.32c-7.39,0-13.38-5.99-13.38-13.39s5.99-13.38,13.38-13.38,13.38,5.99,13.38,13.38-5.99,13.39-13.38,13.39ZM39.01,23.55c-8.48,0-15.38,6.9-15.38,15.38s6.9,15.39,15.38,15.39,15.38-6.9,15.38-15.39-6.9-15.38-15.38-15.38ZM39.01,52.32c-7.39,0-13.38-5.99-13.38-13.39s5.99-13.38,13.38-13.38,13.38,5.99,13.38,13.38-5.99,13.39-13.38,13.39ZM39.01,23.55c-8.48,0-15.38,6.9-15.38,15.38s6.9,15.39,15.38,15.39,15.38-6.9,15.38-15.39-6.9-15.38-15.38-15.38ZM39.01,52.32c-7.39,0-13.38-5.99-13.38-13.39s5.99-13.38,13.38-13.38,13.38,5.99,13.38,13.38-5.99,13.39-13.38,13.39ZM39.01,23.55c-8.48,0-15.38,6.9-15.38,15.38s6.9,15.39,15.38,15.39,15.38-6.9,15.38-15.39-6.9-15.38-15.38-15.38ZM39.01,52.32c-7.39,0-13.38-5.99-13.38-13.39s5.99-13.38,13.38-13.38,13.38,5.99,13.38,13.38-5.99,13.39-13.38,13.39ZM39.01,23.55c-8.48,0-15.38,6.9-15.38,15.38s6.9,15.39,15.38,15.39,15.38-6.9,15.38-15.39-6.9-15.38-15.38-15.38ZM39.01,52.32c-7.39,0-13.38-5.99-13.38-13.39s5.99-13.38,13.38-13.38,13.38,5.99,13.38,13.38-5.99,13.39-13.38,13.39ZM39.01,23.55c-8.48,0-15.38,6.9-15.38,15.38s6.9,15.39,15.38,15.39,15.38-6.9,15.38-15.39-6.9-15.38-15.38-15.38ZM39.01,52.32c-7.39,0-13.38-5.99-13.38-13.39s5.99-13.38,13.38-13.38,13.38,5.99,13.38,13.38-5.99,13.39-13.38,13.39ZM39.01,23.55c-8.48,0-15.38,6.9-15.38,15.38s6.9,15.39,15.38,15.39,15.38-6.9,15.38-15.39-6.9-15.38-15.38-15.38ZM39.01,52.32c-7.39,0-13.38-5.99-13.38-13.39s5.99-13.38,13.38-13.38,13.38,5.99,13.38,13.38-5.99,13.39-13.38,13.39Z"/>
    </g>
    <g>
      <path class="cls-1" d="M84.63,0h4.42l3.93,8.52L96.87,0h4.39v23.9h-4.88v-14.42l-3.56,7.46-3.56-7.46v14.42h-4.62V0Z"/>
      <path class="cls-1" d="M115.98,18.78h-6.67l-1.35,5.12h-5.02L109.77,0h5.94l6.83,23.9h-5.25l-1.32-5.12ZM110.7,13.27l-.36,1.39h4.62l-.36-1.39c-.69-2.57-1.35-5.18-1.95-7.76-.6,2.57-1.26,5.18-1.95,7.76Z"/>
      <path class="cls-1" d="M131.75,14.82h-2.11v9.08h-5.21V0h7.26c2.58,0,4.59.43,6.24,1.62s2.77,3.14,2.77,5.74c0,2.9-1.42,5.18-3.93,6.4l5.58,10.13h-5.74l-4.85-9.08ZM129.64,10.66h1.65c1.35,0,2.28-.17,3-.66.73-.5,1.16-1.42,1.16-2.48s-.43-2.01-1.16-2.51c-.72-.5-1.65-.66-3-.66h-1.65v6.3Z"/>
    </g>
    <g>
      <path class="cls-1" d="M84.63,27.04h5.25v11.02l6.4-11.02h5.81l-6.93,11.45,7.26,12.44h-6.01l-6.54-11.72v11.72h-5.25v-23.9Z"/>
      <path class="cls-1" d="M105.36,27.04h14.95v4.52h-9.77v5.02h8.78v4.36h-8.78v5.48h9.9v4.52h-15.08v-23.9Z"/>
      <path class="cls-1" d="M123.34,31.56v-4.52h17.79v4.52h-6.27v19.37h-5.25v-19.37h-6.27Z"/>
    </g>
    <g>
      <path class="cls-1" d="M94.52,58.27v15.25h4.65v4.32h-14.55v-4.32h4.65v-15.25h-4.65v-4.32h14.55v4.32h-4.65Z"/>
      <path class="cls-1" d="M103.46,53.95h4.32l7.39,13.27v-13.27h4.72v23.9h-3.83l-7.89-14.19v14.19h-4.72v-23.9Z"/>
      <path class="cls-1" d="M139.99,64.91v11.68c-1.62.96-4.03,1.58-6.37,1.58-7,0-10.86-4.95-10.86-11.95v-.4c0-7.2,4.06-12.21,11.02-12.21,2.31,0,4.36.63,5.84,1.62v4.95c-1.49-1.12-3.4-1.92-5.41-1.92-4.29,0-6.34,3.24-6.34,7.66v.1c0,4.32,1.72,7.66,5.88,7.66.56,0,1.12-.07,1.58-.2v-4.49h-3.23v-4.09h7.89Z"/>
    </g>
  </g>
</svg>